<?xml version="1.0" encoding="UTF-8" standalone="no"?>
<!-- Created with Inkscape (http://www.inkscape.org/) -->

<svg
   xmlns:dc="http://purl.org/dc/elements/1.1/"
   xmlns:cc="http://creativecommons.org/ns#"
   xmlns:rdf="http://www.w3.org/1999/02/22-rdf-syntax-ns#"
   xmlns:svg="http://www.w3.org/2000/svg"
   xmlns="http://www.w3.org/2000/svg"
   xmlns:sodipodi="http://sodipodi.sourceforge.net/DTD/sodipodi-0.dtd"
   xmlns:inkscape="http://www.inkscape.org/namespaces/inkscape"
   width="56.313183mm"
   height="51.785629mm"
   viewBox="0 0 56.313183 51.785629"
   version="1.1"
   id="svg1814"
   inkscape:version="0.92.2 (5c3e80d, 2017-08-06)"
   sodipodi:docname="drawing.svg">
  <defs
     id="defs1808" />
  <sodipodi:namedview
     id="base"
     pagecolor="#ffffff"
     bordercolor="#666666"
     borderopacity="1.0"
     inkscape:pageopacity="0.0"
     inkscape:pageshadow="2"
     inkscape:zoom="0.35"
     inkscape:cx="32.132895"
     inkscape:cy="55.005461"
     inkscape:document-units="mm"
     inkscape:current-layer="layer1"
     showgrid="false"
     fit-margin-top="0"
     fit-margin-left="0"
     fit-margin-right="0"
     fit-margin-bottom="0"
     inkscape:window-width="1366"
     inkscape:window-height="705"
     inkscape:window-x="-8"
     inkscape:window-y="-8"
     inkscape:window-maximized="1" />
  <metadata
     id="metadata1811">
    <rdf:RDF>
      <cc:Work
         rdf:about="">
        <dc:format>image/svg+xml</dc:format>
        <dc:type
           rdf:resource="http://purl.org/dc/dcmitype/StillImage" />
        <dc:title></dc:title>
      </cc:Work>
    </rdf:RDF>
  </metadata>
  <g
     inkscape:label="Layer 1"
     inkscape:groupmode="layer"
     id="layer1"
     transform="translate(-97.331505,-111.60123)">
    <g
       transform="translate(-20.998786,45.494349)"
       id="g1751">
      <g
         transform="matrix(0.34482714,0,0,-0.33336313,153.05347,77.05993)"
         id="g110">
        <path
           inkscape:connector-curvature="0"
           id="path112"
           style="fill:#dcdcdc;fill-opacity:1;fill-rule:nonzero;stroke:none"
           d="m 0,0 h -38.104 c -1.706,0 -2.992,1.028 -2.992,2.392 0,1.409 1.23,2.392 2.992,2.392 H 0 C 1.762,4.784 2.993,3.801 2.993,2.392 2.993,1.028 1.706,0 0,0" />
      </g>
      <g
         transform="matrix(0.34482714,0,0,-0.33336313,153.51399,78.630637)"
         id="g114">
        <path
           inkscape:connector-curvature="0"
           id="path116"
           style="fill:#dcdcdc;fill-opacity:1;fill-rule:nonzero;stroke:none"
           d="m 0,0 h -41.885 l 0.695,0.871 c 0.007,0.009 0.765,0.977 1.307,2.534 l 0.125,0.36 h 38.745 l 0.125,-0.36 C -0.345,1.848 0.413,0.88 0.42,0.87 L 1.108,0.001 Z" />
      </g>
      <g
         transform="matrix(0.34482714,0,0,-0.33336313,152.85399,75.149526)"
         id="g118">
        <path
           inkscape:connector-curvature="0"
           id="path120"
           style="fill:#dcdcdc;fill-opacity:1;fill-rule:nonzero;stroke:none"
           d="m 0,0 h -36.943 l 0.021,0.557 c 0.024,0.632 0.028,1.184 0.01,1.639 -0.117,2.955 -1.525,6.406 -4.555,11.149 -0.433,-0.145 -0.884,-0.218 -1.348,-0.218 -2.362,0 -4.283,1.92 -4.283,4.279 0,2.359 1.921,4.279 4.283,4.279 2.359,0 4.279,-1.92 4.279,-4.279 0,-0.469 -0.078,-0.936 -0.227,-1.373 4.488,-3.178 8.544,-7.415 11.073,-11.549 1.944,4.244 3.483,7.383 6.69,12.351 -1.094,0.803 -1.754,2.081 -1.754,3.456 0,2.359 1.921,4.279 4.282,4.279 2.36,0 4.279,-1.92 4.279,-4.279 0,-1.376 -0.658,-2.654 -1.75,-3.455 3.207,-4.969 4.746,-8.108 6.69,-12.352 2.527,4.13 6.582,8.366 11.07,11.545 -0.151,0.445 -0.227,0.906 -0.227,1.377 0,2.359 1.921,4.279 4.282,4.279 2.36,0 4.279,-1.92 4.279,-4.279 0,-2.359 -1.919,-4.279 -4.279,-4.279 -0.464,0 -0.915,0.073 -1.347,0.218 C 1.494,8.602 0.086,5.151 -0.03,2.196 -0.048,1.741 -0.045,1.19 -0.021,0.557 Z" />
      </g>
      <g
         transform="matrix(0.34482714,0,0,-0.33336313,163.76922,84.44809)"
         id="g122">
        <path
           inkscape:connector-curvature="0"
           id="path124"
           style="fill:#ffffff;fill-opacity:1;fill-rule:nonzero;stroke:none"
           d="M 0,0 C -12.695,6.609 -27.675,7.551 -41.108,2.587 L -44.29,1.411 c -0.371,-0.137 -0.783,0.006 -0.992,0.338 -0.13,0.22 -0.27,0.434 -0.419,0.643 -10e-4,10e-4 -10e-4,0.002 -0.002,0.003 -0.145,0.202 -0.297,0.4 -0.459,0.591 0,10e-4 -10e-4,10e-4 -10e-4,10e-4 -0.319,0.377 -0.671,0.73 -1.054,1.055 -0.012,0.01 -0.024,0.02 -0.036,0.03 -0.186,0.156 -0.379,0.305 -0.579,0.447 -0.014,0.01 -0.029,0.02 -0.044,0.03 -0.323,0.227 -0.663,0.437 -1.023,0.624 -0.095,0.05 -0.191,0.095 -0.287,0.141 -0.015,0.007 -0.029,0.014 -0.043,0.021 -0.223,0.105 -0.449,0.199 -0.677,0.285 -0.019,0.007 -0.037,0.017 -0.057,0.024 -0.022,0.008 -0.045,0.014 -0.067,0.021 -0.203,0.073 -0.407,0.14 -0.612,0.198 -0.066,0.019 -0.133,0.034 -0.199,0.051 -0.152,0.039 -0.304,0.074 -0.457,0.105 -0.101,0.02 -0.201,0.04 -0.302,0.056 -0.151,0.025 -0.302,0.047 -0.452,0.064 -0.091,0.01 -0.181,0.02 -0.271,0.028 -0.178,0.015 -0.355,0.025 -0.532,0.029 -0.088,0.002 -0.176,0.002 -0.264,0.002 -0.157,-0.001 -0.314,-0.005 -0.471,-0.014 -0.093,-0.005 -0.186,-0.012 -0.279,-0.02 -0.152,-0.013 -0.305,-0.031 -0.456,-0.051 -0.07,-0.01 -0.14,-0.018 -0.21,-0.03 -0.189,-0.03 -0.376,-0.068 -0.562,-0.11 -0.07,-0.016 -0.139,-0.032 -0.208,-0.049 -0.188,-0.047 -0.374,-0.099 -0.558,-0.158 -0.061,-0.019 -0.12,-0.041 -0.18,-0.061 -0.157,-0.054 -0.313,-0.112 -0.467,-0.174 -0.063,-0.025 -0.127,-0.05 -0.19,-0.078 -0.065,-0.027 -0.128,-0.057 -0.192,-0.086 -0.067,0.032 -0.137,0.059 -0.204,0.089 -0.064,0.029 -0.127,0.057 -0.191,0.083 -0.177,0.074 -0.356,0.142 -0.538,0.203 -0.062,0.022 -0.123,0.044 -0.185,0.064 -0.208,0.065 -0.417,0.122 -0.629,0.171 -0.035,0.008 -0.069,0.019 -0.104,0.027 -0.507,0.111 -1.023,0.174 -1.542,0.191 -0.044,10e-4 -0.088,0 -0.132,0 -0.215,0.004 -0.43,0 -0.645,-0.013 -0.053,-0.003 -0.107,-0.008 -0.16,-0.013 -0.212,-0.017 -0.422,-0.041 -0.632,-0.075 -0.048,-0.007 -0.096,-0.015 -0.144,-0.023 -0.226,-0.04 -0.451,-0.089 -0.674,-0.148 -0.03,-0.008 -0.059,-0.014 -0.088,-0.022 -0.309,-0.085 -0.613,-0.185 -0.913,-0.307 -0.086,0.037 -0.176,0.066 -0.263,0.1 -0.041,0.016 -0.083,0.032 -0.124,0.047 -0.197,0.072 -0.398,0.135 -0.601,0.191 -0.027,0.007 -0.053,0.016 -0.08,0.022 -0.464,0.122 -0.943,0.204 -1.435,0.234 -0.543,0.033 -1.073,0.008 -1.587,-0.066 C -67.77,6.121 -67.777,6.12 -67.784,6.119 -68.026,6.083 -68.265,6.035 -68.499,5.977 -68.516,5.973 -68.532,5.97 -68.549,5.966 -68.776,5.908 -68.999,5.839 -69.218,5.762 -69.239,5.754 -69.26,5.747 -69.281,5.739 -69.496,5.661 -69.705,5.573 -69.91,5.477 -69.932,5.466 -69.954,5.456 -69.976,5.445 -70.18,5.347 -70.378,5.241 -70.57,5.126 -70.59,5.114 -70.61,5.101 -70.63,5.089 -70.823,4.971 -71.011,4.846 -71.192,4.713 -71.207,4.701 -71.222,4.69 -71.237,4.678 -71.421,4.54 -71.6,4.395 -71.771,4.241 -71.778,4.235 -71.785,4.228 -71.792,4.221 -71.965,4.064 -72.131,3.9 -72.289,3.728 -72.293,3.724 -72.297,3.72 -72.301,3.716 -72.454,3.548 -72.599,3.373 -72.737,3.192 -72.751,3.174 -72.766,3.156 -72.78,3.137 -72.91,2.964 -73.031,2.785 -73.146,2.601 -73.164,2.572 -73.183,2.543 -73.201,2.513 -73.31,2.334 -73.41,2.15 -73.504,1.962 -73.523,1.925 -73.541,1.888 -73.559,1.851 -73.648,1.665 -73.73,1.475 -73.804,1.281 -73.82,1.239 -73.836,1.197 -73.851,1.155 c -0.07,-0.194 -0.134,-0.391 -0.188,-0.592 -0.012,-0.044 -0.023,-0.087 -0.034,-0.13 -0.051,-0.204 -0.096,-0.41 -0.131,-0.62 -0.007,-0.041 -0.012,-0.083 -0.018,-0.124 -0.032,-0.215 -0.057,-0.432 -0.071,-0.652 -0.002,-0.035 -0.002,-0.07 -0.004,-0.105 -0.01,-0.218 -0.013,-0.439 -0.004,-0.661 0,-0.016 -0.001,-0.031 -0.001,-0.047 0.184,-4.21 3.76,-7.486 7.97,-7.302 0.003,0 0.006,0 0.009,0 0.405,0.018 0.741,-0.308 0.734,-0.713 l -0.026,-1.741 c -0.163,-10.874 -8.811,-19.762 -19.687,-20.237 -2.004,-0.088 -3.957,0.118 -5.818,0.577 0.403,0.454 0.756,0.943 1.047,1.464 1.171,2.098 1.405,4.646 0.557,6.964 -0.014,0.037 -0.023,0.075 -0.037,0.112 -0.018,0.047 -0.043,0.092 -0.062,0.14 -0.189,0.469 -0.418,0.93 -0.699,1.372 h -0.001 c 0,0 0,0.001 0,0.001 -0.147,0.232 -0.306,0.452 -0.472,0.664 -0.012,0.015 -0.023,0.031 -0.034,0.046 -0.161,0.202 -0.331,0.394 -0.506,0.577 -0.02,0.021 -0.039,0.043 -0.059,0.063 -0.174,0.178 -0.355,0.345 -0.541,0.505 -0.025,0.022 -0.05,0.043 -0.075,0.065 -0.187,0.156 -0.379,0.302 -0.577,0.44 -0.027,0.019 -0.055,0.038 -0.082,0.057 -0.2,0.136 -0.405,0.262 -0.615,0.38 -0.026,0.015 -0.053,0.029 -0.08,0.044 -0.214,0.117 -0.433,0.225 -0.655,0.322 -0.022,0.009 -0.043,0.018 -0.065,0.027 -0.23,0.099 -0.465,0.188 -0.703,0.266 -0.01,0.003 -0.02,0.006 -0.03,0.009 -0.751,0.241 -1.535,0.376 -2.326,0.4 -0.012,0.001 -0.024,0.002 -0.037,0.002 -0.253,0.006 -0.507,10e-4 -0.761,-0.016 -0.019,-0.001 -0.038,-0.002 -0.056,-0.003 -0.251,-0.018 -0.502,-0.048 -0.751,-0.089 -0.021,-0.004 -0.042,-0.007 -0.063,-0.011 -0.249,-0.042 -0.497,-0.097 -0.743,-0.163 -0.019,-0.005 -0.038,-0.01 -0.058,-0.015 -0.248,-0.069 -0.495,-0.149 -0.74,-0.241 -0.013,-0.006 -0.027,-0.011 -0.04,-0.017 -0.25,-0.096 -0.498,-0.204 -0.741,-0.326 -0.004,-0.002 -0.007,-0.004 -0.011,-0.006 -0.512,-0.258 -1.008,-0.572 -1.479,-0.947 -0.42,-0.334 -0.796,-0.708 -1.135,-1.107 -0.018,-0.021 -0.035,-0.044 -0.053,-0.065 -0.15,-0.18 -0.291,-0.365 -0.424,-0.556 -0.026,-0.037 -0.052,-0.076 -0.078,-0.114 -0.005,-0.008 -0.011,-0.017 -0.017,-0.025 -1.248,2.309 -2.072,4.889 -2.356,7.648 l -0.178,1.729 c -0.042,0.405 0.266,0.76 0.671,0.778 0.003,0 0.006,0 0.009,0 1.287,0.056 2.485,0.432 3.525,1.043 1.893,1.112 3.253,3.01 3.656,5.223 0.01,0.054 0.025,0.106 0.034,0.16 0.007,0.048 0.009,0.097 0.015,0.145 0.065,0.456 0.094,0.923 0.073,1.399 v 0 10e-4 c -0.011,0.25 -0.036,0.496 -0.07,0.74 -0.003,0.017 -0.004,0.035 -0.007,0.052 -0.034,0.233 -0.081,0.462 -0.136,0.687 -0.006,0.026 -0.011,0.052 -0.018,0.078 -0.056,0.219 -0.122,0.434 -0.197,0.645 -0.01,0.029 -0.02,0.058 -0.03,0.086 -0.076,0.208 -0.161,0.412 -0.255,0.61 -0.013,0.029 -0.026,0.057 -0.04,0.085 -0.095,0.198 -0.199,0.391 -0.311,0.58 -0.015,0.024 -0.029,0.047 -0.044,0.071 -0.116,0.19 -0.239,0.376 -0.371,0.554 -0.013,0.017 -0.026,0.034 -0.038,0.051 -0.138,0.183 -0.282,0.361 -0.435,0.531 -0.007,0.007 -0.013,0.014 -0.02,0.021 -0.484,0.534 -1.042,0.998 -1.656,1.378 -0.01,0.006 -0.019,0.013 -0.028,0.018 -0.198,0.121 -0.402,0.233 -0.61,0.336 -0.015,0.007 -0.03,0.015 -0.046,0.023 -0.206,0.1 -0.418,0.19 -0.634,0.272 -0.018,0.007 -0.036,0.014 -0.054,0.02 -0.217,0.08 -0.438,0.151 -0.663,0.211 -0.017,0.005 -0.035,0.009 -0.052,0.014 -0.228,0.059 -0.46,0.109 -0.696,0.147 -0.013,0.002 -0.026,0.004 -0.039,0.006 -0.241,0.038 -0.486,0.065 -0.735,0.08 -0.003,0 -0.007,0 -0.011,0 -0.523,0.03 -1.058,0.008 -1.602,-0.073 -0.484,-0.073 -0.952,-0.197 -1.403,-0.358 -0.024,-0.008 -0.047,-0.018 -0.071,-0.027 -0.201,-0.074 -0.397,-0.156 -0.589,-0.246 -0.038,-0.018 -0.076,-0.036 -0.114,-0.055 -0.178,-0.086 -0.351,-0.18 -0.521,-0.28 -0.039,-0.023 -0.078,-0.045 -0.117,-0.068 -0.174,-0.107 -0.342,-0.22 -0.507,-0.34 -0.026,-0.019 -0.053,-0.037 -0.079,-0.056 -0.386,-0.289 -0.744,-0.611 -1.069,-0.965 -0.002,-0.002 -0.003,-0.004 -0.005,-0.006 -0.156,-0.17 -0.302,-0.348 -0.442,-0.532 -0.023,-0.03 -0.044,-0.061 -0.067,-0.091 -0.119,-0.161 -0.232,-0.326 -0.338,-0.496 -0.022,-0.035 -0.043,-0.07 -0.065,-0.106 -0.106,-0.175 -0.204,-0.355 -0.296,-0.539 -0.014,-0.027 -0.028,-0.055 -0.042,-0.082 -0.101,-0.211 -0.195,-0.426 -0.277,-0.647 -0.001,-0.001 -0.001,-0.001 -0.001,-0.002 -0.239,-0.64 -0.398,-1.318 -0.454,-2.021 -0.004,-0.045 -0.003,-0.088 -0.005,-0.133 -0.005,-0.067 -0.005,-0.135 -0.008,-0.202 -0.007,-0.179 -0.009,-0.357 -0.004,-0.533 10e-4,-0.036 -0.002,-0.07 0,-0.106 0.002,-0.045 0.01,-0.088 0.012,-0.133 0.011,-0.171 0.027,-0.34 0.048,-0.508 0.01,-0.077 0.019,-0.154 0.032,-0.23 0.028,-0.175 0.063,-0.348 0.102,-0.519 0.015,-0.062 0.027,-0.126 0.043,-0.188 0.058,-0.224 0.124,-0.445 0.201,-0.661 0.002,-0.005 0.003,-0.011 0.005,-0.016 0.081,-0.224 0.173,-0.441 0.273,-0.654 0.028,-0.059 0.06,-0.116 0.089,-0.174 0.074,-0.146 0.149,-0.29 0.232,-0.431 0.048,-0.081 0.099,-0.16 0.15,-0.24 0.042,-0.066 0.08,-0.135 0.124,-0.2 0.191,-0.278 0.155,-0.652 -0.085,-0.89 l -2.022,-2.005 c -8.548,-8.464 -13.152,-20.206 -12.627,-32.214 0.945,-21.641 17.928,-38.862 38.957,-40.676 12.907,-12.307 31.943,-16.241 48.715,-9.939 23.363,-7.993 49.77,2.079 61.512,24.636 C 34.559,-43.694 24.86,-12.941 0,0" />
      </g>
      <g
         transform="matrix(0.34482714,0,0,-0.33336313,132.03015,95.593453)"
         id="g126">
        <path
           inkscape:connector-curvature="0"
           id="path128"
           style="fill:#dcdcdc;fill-opacity:1;fill-rule:nonzero;stroke:none"
           d="m 0,0 0.932,-1.29 c 0.438,-0.604 0.91,-1.177 1.404,-1.728 1.485,-0.206 3.008,-0.286 4.56,-0.223 12.894,0.525 23.154,10.554 24.31,23.061 0.02,0.209 0.014,1 -0.017,2.013 -3.122,0.107 -5.962,1.716 -7.646,4.358 -1.434,2.251 -1.846,5.021 -1.131,7.601 0.714,2.575 2.501,4.739 4.903,5.938 0.34,0.17 0.691,0.316 1.05,0.443 -0.771,0.284 -1.586,0.468 -2.432,0.519 -2.622,0.16 -5.061,-0.808 -6.846,-2.673 -1.663,-1.737 -2.521,-4.012 -2.416,-6.407 0.204,-4.676 4.027,-8.338 8.704,-8.337 h 0.001 L 25.355,21.917 C 25.201,11.611 17.004,3.186 6.694,2.736 5.357,2.677 4.046,2.755 2.774,2.953 2.094,1.81 1.163,0.795 0,0" />
      </g>
      <g
         transform="matrix(0.34482714,0,0,-0.33336313,137.90397,96.062495)"
         id="g130">
        <path
           inkscape:connector-curvature="0"
           id="path132"
           style="fill:#fff500;fill-opacity:1;fill-rule:nonzero;stroke:none"
           d="m 0,0 c 1.62,0 3.239,-0.397 4.682,-1.148 2.469,-1.285 4.189,-3.448 4.981,-5.908 1.093,0.463 2.152,1.016 3.165,1.661 9.16,5.836 12.458,17.559 7.898,27.237 0.001,-10e-4 0.003,-10e-4 0.004,-10e-4 -1.223,0.143 -2.421,0.509 -3.518,1.08 -0.293,0.152 -0.575,0.319 -0.849,0.498 -0.614,-0.125 -1.242,-0.189 -1.876,-0.189 -0.111,0 -0.222,0.006 -0.332,0.01 0.031,-1.013 0.037,-1.804 0.017,-2.013 C 13.263,11.399 6.732,3.103 -2.281,-0.255 -1.545,-0.088 -0.781,0 0,0" />
      </g>
      <g
         transform="matrix(0.34482714,0,0,-0.33336313,130.43129,109.48839)"
         id="g134">
        <path
           inkscape:connector-curvature="0"
           id="path136"
           style="fill:#fff500;fill-opacity:1;fill-rule:nonzero;stroke:none"
           d="m 0,0 c -7.235,11.356 -9.347,25.327 -5.794,38.329 l 0.753,2.765 c -1.845,0.948 -3.294,2.45 -4.2,4.357 -0.529,1.113 -0.809,2.298 -0.873,3.486 -2.216,3.053 -3.776,6.623 -4.458,10.511 -0.135,0.769 -1.087,1.049 -1.615,0.473 C -22.783,52.727 -26.613,42.994 -26.084,32.452 -25.274,16.313 -13.661,2.554 1.303,-1.931 0.857,-1.299 0.419,-0.658 0,0" />
      </g>
      <g
         transform="matrix(0.34482714,0,0,-0.33336313,137.90397,96.062495)"
         id="g138">
        <path
           inkscape:connector-curvature="0"
           id="path140"
           style="fill:#fff000;fill-opacity:1;fill-rule:nonzero;stroke:none"
           d="m 0,0 c 1.62,0 3.239,-0.397 4.682,-1.148 2.469,-1.285 4.189,-3.448 4.981,-5.908 1.093,0.463 2.152,1.016 3.165,1.661 9.16,5.836 12.458,17.559 7.898,27.237 0.001,-10e-4 0.003,-10e-4 0.004,-10e-4 -1.223,0.143 -2.421,0.509 -3.518,1.08 -0.293,0.152 -0.575,0.319 -0.849,0.498 -0.614,-0.125 -1.242,-0.189 -1.876,-0.189 -0.111,0 -0.222,0.006 -0.332,0.01 0.031,-1.013 0.037,-1.804 0.017,-2.013 C 13.263,11.399 6.732,3.103 -2.281,-0.255 -1.545,-0.088 -0.781,0 0,0" />
      </g>
      <g
         transform="matrix(0.34482714,0,0,-0.33336313,130.43129,109.48839)"
         id="g142">
        <path
           inkscape:connector-curvature="0"
           id="path144"
           style="fill:#fff000;fill-opacity:1;fill-rule:nonzero;stroke:none"
           d="m 0,0 c -7.235,11.356 -9.347,25.327 -5.794,38.329 l 0.753,2.765 c -1.845,0.948 -3.294,2.45 -4.2,4.357 -0.529,1.113 -0.809,2.298 -0.873,3.486 -2.216,3.053 -3.776,6.623 -4.458,10.511 -0.135,0.769 -1.087,1.049 -1.615,0.473 C -22.783,52.727 -26.613,42.994 -26.084,32.452 -25.274,16.313 -13.661,2.554 1.303,-1.931 0.857,-1.299 0.419,-0.658 0,0" />
      </g>
      <g
         transform="matrix(0.34482714,0,0,-0.33336313,130.88071,110.13202)"
         id="g146">
        <path
           inkscape:connector-curvature="0"
           id="path148"
           style="fill:#dcdcdc;fill-opacity:1;fill-rule:nonzero;stroke:none"
           d="m 0,0 c -14.964,4.484 -26.577,18.244 -27.387,34.383 -0.53,10.542 3.301,20.275 9.897,27.469 0.527,0.576 1.48,0.296 1.615,-0.473 0.682,-3.888 2.241,-7.459 4.458,-10.512 -0.14,2.625 0.816,5.26 2.698,7.17 -0.78,1.799 -1.304,3.743 -1.515,5.793 l -0.139,1.35 c 2.177,0.189 4.177,1.173 5.665,2.797 1.574,1.718 2.385,3.943 2.284,6.267 -0.204,4.675 -4.028,8.337 -8.705,8.337 -0.439,0 -0.885,-0.033 -1.324,-0.099 -3.95,-0.594 -7.049,-3.913 -7.368,-7.892 -0.154,-1.917 0.297,-3.763 1.306,-5.358 L -20.32,67.443 C -29.083,58.765 -33.801,46.729 -33.263,34.42 -32.769,23.094 -27.97,12.536 -19.751,4.689 -12.57,-2.166 -3.448,-6.321 6.287,-7.245 3.977,-5.07 1.87,-2.647 0,0" />
      </g>
      <g
         transform="matrix(0.34482714,0,0,-0.33336313,150.28734,85.397408)"
         id="g150">
        <path
           inkscape:connector-curvature="0"
           id="path152"
           style="fill:#bad3ed;fill-opacity:1;fill-rule:nonzero;stroke:none"
           d="M 0,0 C 13.668,-8.17 18.761,-25.683 11.312,-39.992 3.864,-54.3 -13.403,-60.174 -27.935,-53.663 c 3.114,-11.861 11.033,-22.414 22.767,-28.523 22.062,-11.484 49.258,-2.91 60.743,19.153 11.485,22.062 2.91,49.258 -19.152,60.743 C 24.688,3.818 11.502,4.252 0,0" />
      </g>
      <g
         transform="matrix(0.34482714,0,0,-0.33336313,151.09272,85.166121)"
         id="g154">
        <path
           inkscape:connector-curvature="0"
           id="path156"
           style="fill:#fff500;fill-opacity:1;fill-rule:nonzero;stroke:none"
           d="m 0,0 c -0.891,-0.275 -1.083,-1.441 -0.321,-1.98 12.206,-8.637 16.439,-25.184 9.305,-38.791 -7.135,-13.606 -23.151,-19.534 -37.197,-14.407 -0.873,0.318 -1.729,-0.498 -1.45,-1.384 3.492,-11.083 11.246,-20.825 22.429,-26.555 21.282,-10.902 48.712,-2.413 60.11,18.608 11.997,22.126 3.547,49.716 -18.67,61.365 C 23.233,2.61 10.971,3.389 0,0" />
      </g>
      <g
         transform="matrix(0.34482714,0,0,-0.33336313,169.32576,106.67104)"
         id="g158">
        <path
           inkscape:connector-curvature="0"
           id="path160"
           style="fill:#dcdcdc;fill-opacity:1;fill-rule:nonzero;stroke:none"
           d="m 0,0 c -11.398,-21.021 -38.828,-29.51 -60.109,-18.608 -11.184,5.73 -18.938,15.472 -22.43,26.555 -0.279,0.886 0.577,1.702 1.45,1.384 14.046,-5.127 30.063,0.801 37.197,14.407 7.134,13.607 2.901,30.154 -9.305,38.791 -0.762,0.539 -0.57,1.705 0.321,1.98 10.971,3.389 23.233,2.61 34.206,-3.144 C 3.547,49.716 11.997,22.126 0,0 m -15.619,67.615 c -7.358,3.83 -15.65,5.855 -23.98,5.855 -6.17,0 -12.225,-1.081 -17.995,-3.213 l -2.996,-1.108 c -1.192,1.924 -2.956,3.362 -5.113,4.164 -1.118,0.415 -2.293,0.626 -3.492,0.626 -3.437,0 -6.611,-1.696 -8.489,-4.536 -1.595,-2.412 -2.097,-5.393 -1.376,-8.179 0.723,-2.791 2.599,-5.153 5.149,-6.48 1.444,-0.752 3.064,-1.15 4.684,-1.15 3.732,10e-4 7.127,2.008 8.923,5.264 l 1.567,-0.937 c 10.626,-6.35 14.467,-19.934 8.745,-30.927 -4.052,-7.783 -12.029,-12.618 -20.818,-12.618 -3.299,0 -6.506,0.687 -9.532,2.042 l -1.666,0.747 c 2.428,4.937 0.472,10.956 -4.433,13.509 -1.443,0.752 -3.062,1.149 -4.682,1.149 -4.222,0 -7.949,-2.543 -9.496,-6.479 -1.704,-4.338 -0.158,-9.406 3.677,-12.05 1.721,-1.187 3.719,-1.814 5.779,-1.814 0.189,0 0.379,0.005 0.561,0.016 l 0.813,-3.086 c 3.715,-14.145 13.279,-26.126 26.238,-32.872 7.362,-3.833 15.62,-5.858 23.881,-5.858 19.482,0 37.156,10.703 46.124,27.93 13.215,25.386 3.313,56.79 -22.073,70.005" />
      </g>
      <g
         transform="matrix(0.34482714,0,0,-0.33336313,147.41169,114.82584)"
         id="g162">
        <path
           inkscape:connector-curvature="0"
           id="path164"
           style="fill:#dcdcdc;fill-opacity:1;fill-rule:nonzero;stroke:none"
           d="m 0,0 c -0.592,0.308 -1.174,0.631 -1.751,0.96 -15.883,-2.6 -32.918,4.149 -41.985,18.179 -6.275,9.709 -7.971,21.038 -5.655,31.474 0.185,0.835 1.242,1.091 1.791,0.436 2.834,-3.383 6.355,-5.948 10.222,-7.629 -0.57,2.066 -0.506,4.309 0.31,6.387 0.069,0.175 0.147,0.344 0.225,0.514 -2.659,1.499 -5.004,3.555 -6.831,6.082 l -0.933,1.289 c 4.185,2.86 5.377,8.565 2.634,12.871 -1.742,2.735 -4.725,4.367 -7.979,4.367 -2.155,0 -4.194,-0.716 -5.895,-2.072 -3.385,-2.697 -4.494,-7.489 -2.638,-11.396 0.907,-1.907 2.356,-3.409 4.201,-4.357 l -0.754,-2.765 c -3.552,-13.002 -1.44,-26.973 5.795,-38.329 8.824,-13.852 23.934,-22.121 40.42,-22.121 4.023,0 8.03,0.508 11.911,1.509 1.518,0.391 3.009,0.866 4.478,1.405 C 4.968,-2.332 2.434,-1.267 0,0" />
      </g>
      <g
         transform="matrix(0.34482714,0,0,-0.33336313,142.32742,97.860956)"
         id="g166">
        <path
           inkscape:connector-curvature="0"
           id="path168"
           style="fill:#dcdcdc;fill-opacity:1;fill-rule:nonzero;stroke:none"
           d="m 0,0 c -1.013,-0.645 -2.072,-1.198 -3.165,-1.662 0.712,-2.212 0.67,-4.665 -0.254,-6.938 2.353,0.713 4.65,1.749 6.828,3.127 11.595,7.339 15.927,21.814 10.906,34.088 -1.554,-0.932 -3.356,-1.448 -5.247,-1.449 -0.391,0 -0.782,0.025 -1.17,0.07 C 12.459,17.559 9.16,5.836 0,0" />
      </g>
      <g
         transform="matrix(0.34482714,0,0,-0.33336313,144.90866,101.87855)"
         id="g170">
        <path
           inkscape:connector-curvature="0"
           id="path172"
           style="fill:#fff500;fill-opacity:1;fill-rule:nonzero;stroke:none"
           d="m 0,0 c 8.789,0 16.766,4.835 20.817,12.618 5.723,10.993 1.882,24.577 -8.744,30.926 l -1.568,0.938 C 9.619,42.875 8.343,41.574 6.829,40.666 11.85,28.393 7.519,13.918 -4.077,6.579 -6.255,5.2 -8.552,4.165 -10.904,3.451 -10.995,3.229 -11.091,3.007 -11.198,2.788 L -9.532,2.042 C -6.506,0.687 -3.299,0 0,0" />
      </g>
      <g
         transform="matrix(0.34482714,0,0,-0.33336313,138.36401,103.86756)"
         id="g174">
        <path
           inkscape:connector-curvature="0"
           id="path176"
           style="fill:#fff500;fill-opacity:1;fill-rule:nonzero;stroke:none"
           d="M 0,0 -0.812,3.086 C -0.995,3.076 -1.185,3.07 -1.374,3.07 c -2.059,0 -4.058,0.627 -5.779,1.814 -1.998,1.378 -3.368,3.416 -3.987,5.664 -3.867,1.681 -7.388,4.246 -10.221,7.629 -0.549,0.655 -1.606,0.399 -1.792,-0.436 -2.316,-10.436 -0.619,-21.765 5.656,-31.474 C -8.43,-27.763 8.604,-34.512 24.487,-31.912 12.421,-25.024 3.546,-13.499 0,0" />
      </g>
      <g
         transform="matrix(0.34482714,0,0,-0.33336313,144.90866,101.87855)"
         id="g178">
        <path
           inkscape:connector-curvature="0"
           id="path180"
           style="fill:#fff000;fill-opacity:1;fill-rule:nonzero;stroke:none"
           d="m 0,0 c 8.789,0 16.766,4.835 20.817,12.618 5.723,10.993 1.882,24.577 -8.744,30.926 l -1.568,0.938 C 9.619,42.875 8.343,41.574 6.829,40.666 11.85,28.393 7.519,13.918 -4.077,6.579 -6.255,5.2 -8.552,4.165 -10.904,3.451 -10.995,3.229 -11.091,3.007 -11.198,2.788 L -9.532,2.042 C -6.506,0.687 -3.299,0 0,0" />
      </g>
      <g
         transform="matrix(0.34482714,0,0,-0.33336313,138.36401,103.86756)"
         id="g182">
        <path
           inkscape:connector-curvature="0"
           id="path184"
           style="fill:#fff000;fill-opacity:1;fill-rule:nonzero;stroke:none"
           d="M 0,0 -0.812,3.086 C -0.995,3.076 -1.185,3.07 -1.374,3.07 c -2.059,0 -4.058,0.627 -5.779,1.814 -1.998,1.378 -3.368,3.416 -3.987,5.664 -3.867,1.681 -7.388,4.246 -10.221,7.629 -0.549,0.655 -1.606,0.399 -1.792,-0.436 -2.316,-10.436 -0.619,-21.765 5.656,-31.474 C -8.43,-27.763 8.604,-34.512 24.487,-31.912 12.421,-25.024 3.546,-13.499 0,0" />
      </g>
      <g
         transform="matrix(0.34482714,0,0,-0.33336313,142.89949,88.318536)"
         id="g186">
        <path
           inkscape:connector-curvature="0"
           id="path188"
           style="fill:#dcdcdc;fill-opacity:1;fill-rule:nonzero;stroke:none"
           d="m 0,0 c 0.634,0 1.262,0.064 1.876,0.189 -2.115,1.378 -3.66,3.511 -4.299,5.982 -0.722,2.787 -0.22,5.768 1.375,8.18 1.152,1.742 2.793,3.051 4.682,3.804 -1.144,0.476 -2.386,0.731 -3.668,0.731 -1.446,0 -2.889,-0.338 -4.172,-0.979 -2.402,-1.199 -4.19,-3.363 -4.903,-5.938 C -9.824,9.39 -9.412,6.619 -7.978,4.369 -6.235,1.633 -3.253,0 0,0" />
      </g>
      <g
         transform="matrix(0.34482714,0,0,-0.33336313,165.2797,98.674062)"
         id="g190">
        <path
           inkscape:connector-curvature="0"
           id="path192"
           style="fill:#ffffff;fill-opacity:1;fill-rule:nonzero;stroke:none"
           d="m 0,0 c -0.363,-0.937 -0.923,-1.281 -1.54,-1.284 -0.621,-0.002 -1.17,0.347 -1.54,1.29 -0.286,0.732 -0.468,1.921 -0.472,2.944 -0.003,1.049 0.148,2.217 0.443,2.958 0.364,0.913 0.932,1.286 1.541,1.289 C -0.954,7.198 -0.369,6.743 0,5.819 0.295,5.082 0.44,4.001 0.443,2.962 0.447,1.932 0.286,0.736 0,0" />
      </g>
      <g
         transform="matrix(0.34482714,0,0,-0.33336313,159.99301,98.671995)"
         id="g194">
        <path
           inkscape:connector-curvature="0"
           id="path196"
           style="fill:#ffffff;fill-opacity:1;fill-rule:nonzero;stroke:none"
           d="m 0,0 c -0.369,-0.944 -0.918,-1.292 -1.539,-1.29 -0.617,0.003 -1.177,0.347 -1.541,1.284 -0.285,0.735 -0.446,1.932 -0.443,2.962 0.004,1.038 0.149,2.12 0.443,2.857 0.369,0.924 0.955,1.379 1.568,1.377 C -0.903,7.188 -0.334,6.815 0.03,5.902 0.325,5.16 0.476,3.993 0.472,2.944 0.469,1.921 0.286,0.732 0,0" />
      </g>
      <g
         transform="matrix(0.34482714,0,0,-0.33336313,138.18311,68.102729)"
         id="g198">
        <path
           inkscape:connector-curvature="0"
           id="path200"
           style="fill:#231815;fill-opacity:1;fill-rule:nonzero;stroke:none"
           d="M 0,0 C 1.727,-0.121 3.183,-1.459 3.432,-3.172 3.531,-3.853 3.447,-4.516 3.213,-5.103 3.166,-5.22 3.2,-5.352 3.304,-5.425 c 4.691,-3.284 8.853,-7.674 11.354,-11.942 0.11,-0.188 0.384,-0.173 0.474,0.025 1.953,4.283 3.518,7.586 7,12.958 0.081,0.125 0.053,0.298 -0.073,0.379 -1.126,0.722 -1.842,2.025 -1.717,3.488 0.15,1.748 1.553,3.191 3.297,3.387 2.263,0.255 4.177,-1.506 4.177,-3.717 0,-1.324 -0.683,-2.484 -1.718,-3.152 -0.128,-0.083 -0.169,-0.251 -0.086,-0.378 3.485,-5.376 5.05,-8.68 7.005,-12.965 0.09,-0.198 0.363,-0.213 0.474,-0.025 2.501,4.268 6.663,8.655 11.351,11.94 0.103,0.072 0.138,0.202 0.092,0.319 -0.251,0.637 -0.337,1.355 -0.191,2.111 0.292,1.51 1.527,2.708 3.045,2.955 2.384,0.388 4.437,-1.475 4.371,-3.801 -0.056,-1.943 -1.664,-3.562 -3.607,-3.63 -0.527,-0.018 -1.029,0.072 -1.487,0.252 -0.122,0.047 -0.26,0.007 -0.33,-0.102 -2.68,-4.166 -4.616,-8.067 -4.756,-11.599 -0.016,-0.417 -0.015,-0.892 0,-1.402 0.004,-0.151 -0.116,-0.278 -0.268,-0.278 H 6.437 c -0.151,0 -0.272,0.127 -0.268,0.278 0.016,0.51 0.017,0.985 0,1.402 -0.139,3.532 -2.075,7.433 -4.755,11.599 -0.071,0.109 -0.209,0.149 -0.33,0.102 -0.46,-0.18 -0.963,-0.27 -1.492,-0.251 -1.934,0.069 -3.539,1.672 -3.605,3.607 C -4.09,-1.647 -2.234,0.156 0,0 m 45.58,-24.477 c 0,-1.024 -1.033,-1.856 -2.456,-1.856 H 5.02 c -1.423,0 -2.456,0.832 -2.456,1.856 0,1.024 0.894,1.856 2.456,1.856 h 38.104 c 1.562,0 2.456,-0.832 2.456,-1.856 m -1.635,-6.567 H 4.204 c -0.214,0 -0.342,0.234 -0.226,0.413 0.273,0.421 0.69,1.145 1.042,2.101 0.038,0.105 0.138,0.178 0.251,0.178 h 37.607 c 0.112,0 0.212,-0.073 0.251,-0.178 0.351,-0.956 0.769,-1.68 1.041,-2.101 0.116,-0.179 -0.012,-0.413 -0.225,-0.413 M -0.27,-10.567 c 0.021,0 0.043,0 0.064,0 1.573,-2.612 3.18,-5.81 3.285,-8.477 0.01,-0.237 0.012,-0.498 0.009,-0.777 -2.152,-0.671 -3.616,-2.448 -3.616,-4.656 0,-1.645 0.861,-3.074 2.206,-3.969 -0.203,-0.381 -0.373,-0.622 -0.415,-0.679 -0.762,-0.919 -0.905,-2.17 -0.4,-3.253 0.508,-1.09 1.624,-1.759 2.826,-1.759 H 44.46 c 1.202,0 2.318,0.669 2.825,1.759 0.506,1.083 0.363,2.333 -0.4,3.253 -0.042,0.057 -0.212,0.298 -0.416,0.681 1.344,0.895 2.204,2.323 2.204,3.967 0,2.206 -1.463,3.983 -3.613,4.655 -0.003,0.279 0,0.54 0.009,0.778 0.105,2.666 1.713,5.865 3.286,8.477 0.021,0 0.042,0 0.063,0 3.769,0 6.835,3.066 6.835,6.834 0,3.769 -3.066,6.835 -6.835,6.835 -3.771,0 -6.838,-3.066 -6.838,-6.835 0,-0.082 0.001,-0.164 0.004,-0.247 -2.963,-2.258 -5.654,-4.879 -7.852,-7.624 -1.043,2.099 -2.256,4.328 -3.93,7.025 0.71,1.092 1.107,2.382 1.107,3.732 0,3.768 -3.066,6.834 -6.835,6.834 -3.771,0 -6.838,-3.066 -6.838,-6.834 0,-1.35 0.397,-2.641 1.109,-3.733 -1.673,-2.697 -2.885,-4.925 -3.928,-7.023 -2.2,2.748 -4.892,5.369 -7.856,7.628 0.002,0.081 0.004,0.161 0.004,0.242 0,3.769 -3.066,6.835 -6.835,6.835 -3.77,0 -6.838,-3.066 -6.838,-6.835 0,-3.768 3.068,-6.834 6.838,-6.834 m 63.32,-80.748 c -0.321,-0.82 -0.798,-1.123 -1.339,-1.121 -0.536,0.002 -1.023,0.301 -1.339,1.116 -0.248,0.64 -0.388,1.68 -0.385,2.576 0.003,0.903 0.129,1.843 0.385,2.484 0.321,0.803 0.83,1.199 1.364,1.198 0.529,-0.002 1.023,-0.327 1.34,-1.121 0.256,-0.645 0.388,-1.66 0.385,-2.572 -0.003,-0.89 -0.162,-1.923 -0.411,-2.56 m -1.412,7.759 c -2.969,-0.272 -3.643,-4.905 -3.643,-11.201 0,-6.294 0.405,-11.606 3.548,-11.641 2.999,-0.031 3.506,5.103 3.506,11.4 0,6.299 0.004,11.756 -3.411,11.442 m 16.739,-7.764 c -0.315,-0.815 -0.802,-1.114 -1.339,-1.116 -0.54,-0.002 -1.017,0.301 -1.339,1.121 -0.248,0.637 -0.407,1.67 -0.41,2.56 -0.003,0.912 0.128,1.927 0.385,2.572 0.317,0.794 0.811,1.119 1.34,1.121 0.534,10e-4 1.043,-0.395 1.363,-1.198 0.257,-0.641 0.383,-1.581 0.386,-2.484 0.003,-0.896 -0.137,-1.936 -0.386,-2.576 m -1.266,7.764 c -3.415,0.314 -3.41,-5.143 -3.41,-11.442 0,-6.297 0.506,-11.431 3.506,-11.4 3.143,0.035 3.547,5.347 3.547,11.641 0,6.296 -0.674,10.929 -3.643,11.201 m 18.705,-34.033 c -12.942,-24.861 -43.697,-34.558 -68.558,-21.616 -12.691,6.607 -22.057,18.342 -25.696,32.193 l -0.788,2.993 c 2.862,0.456 5.389,2.109 6.945,4.576 l 1.815,-0.812 c 3.233,-1.448 6.625,-2.136 9.97,-2.136 8.879,0 17.424,4.847 21.769,13.195 5.984,11.496 1.968,25.702 -9.146,32.343 l -1.705,1.02 c 1.154,2.749 0.998,5.774 -0.232,8.316 l 2.902,1.073 c 5.693,2.103 11.666,3.146 17.623,3.146 0.235,0 0.47,-0.007 0.705,-0.01 7.861,-0.109 15.678,-2.027 22.78,-5.724 24.86,-12.941 34.559,-43.693 21.616,-68.557 m -117.391,-5.98 c -7.073,11.102 -9.137,24.76 -5.665,37.469 l 0.727,2.665 c 1.052,-0.399 2.184,-0.614 3.352,-0.614 1.524,0 3.014,0.374 4.357,1.082 l 1.023,-1.416 c 1.563,-2.16 3.448,-3.957 5.541,-5.382 -0.569,-1.506 -0.813,-3.082 -0.761,-4.637 -2.648,1.54 -5.045,3.534 -7.062,5.942 -0.389,0.466 -0.958,0.732 -1.559,0.732 -0.964,0 -1.783,-0.657 -1.992,-1.597 -2.48,-11.174 -0.422,-22.624 5.793,-32.241 7.65,-11.836 21.468,-19.19 36.061,-19.191 h 0.004 c 1.66,0 3.308,0.099 4.936,0.288 0.868,-0.516 1.75,-1.011 2.651,-1.479 1.226,-0.639 2.479,-1.224 3.75,-1.765 l 0.002,-0.006 c -19.082,-4.924 -40.011,2.652 -51.158,20.15 m -31.793,31.959 c -0.525,12.008 4.079,23.75 12.626,32.214 l 1.728,1.713 c 1.524,-1.868 3.808,-3.075 6.381,-3.168 l 0.154,-1.506 c 0.16,-1.545 0.494,-3.031 0.971,-4.448 -1.124,-1.195 -1.961,-2.606 -2.482,-4.123 -0.961,1.989 -1.669,4.134 -2.067,6.405 -0.164,0.935 -0.973,1.615 -1.923,1.615 -0.549,0 -1.057,-0.226 -1.432,-0.634 -7.078,-7.721 -10.686,-17.736 -10.161,-28.202 0.492,-9.795 4.831,-19.046 12.217,-26.047 4.106,-3.893 8.86,-6.805 13.956,-8.627 1.22,-1.8 2.554,-3.515 3.992,-5.134 -18.664,3.885 -33.092,20.045 -33.96,39.942 m 20.769,46.024 c 0.098,0.004 0.196,0.006 0.294,0.006 3.558,0 6.468,-2.786 6.623,-6.344 0.16,-3.654 -2.683,-6.758 -6.338,-6.917 -3.697,-0.16 -6.757,2.683 -6.917,6.338 -0.159,3.654 2.684,6.758 6.338,6.917 m 7.401,-77.973 c -12.495,5.469 -21.645,17.715 -22.358,31.916 -0.496,9.874 2.89,19.325 9.535,26.629 0.592,-3.272 1.771,-6.307 3.413,-9.011 -0.112,-1.87 0.226,-3.777 1.062,-5.536 0.84,-1.769 2.116,-3.289 3.68,-4.415 l -0.357,-1.31 c -3.53,-12.919 -1.689,-26.754 5.025,-38.273 m 2.01,56.249 c 2.538,0 4.864,-1.273 6.222,-3.404 2.181,-3.424 1.17,-7.983 -2.253,-10.165 -1.182,-0.752 -2.545,-1.15 -3.942,-1.15 -2.539,0 -4.865,1.272 -6.223,3.404 -1.054,1.655 -1.4,3.626 -0.974,5.548 0.426,1.922 1.572,3.562 3.228,4.616 1.181,0.753 2.545,1.151 3.942,1.151 m 9.717,-13.453 c 0.485,-0.035 0.973,-0.058 1.466,-0.058 0.3,0 0.601,0.007 0.903,0.02 10.576,0.462 19.043,8.88 19.651,19.343 1.18,-0.587 2.464,-0.972 3.805,-1.125 -0.786,-8.383 -5.833,-15.515 -12.903,-19.277 -0.087,0.001 -0.174,0.007 -0.26,0.007 -2.81,0 -5.434,-0.942 -7.531,-2.585 -0.871,-0.131 -1.753,-0.222 -2.649,-0.259 -0.338,-0.014 -0.677,-0.02 -1.012,-0.02 h -0.002 c -0.504,0 -1.005,0.017 -1.503,0.047 -0.567,0.585 -1.103,1.203 -1.595,1.863 0.628,0.624 1.171,1.311 1.63,2.044 m 16.877,24.464 c -1.739,1.231 -2.903,3.221 -3.003,5.514 -0.136,3.103 1.743,5.83 4.473,6.927 -1.036,-1.24 -1.815,-2.691 -2.254,-4.276 -0.758,-2.737 -0.465,-5.649 0.784,-8.165 m 6.303,11.308 c 0.637,0.406 1.329,0.705 2.049,0.897 -0.288,-0.344 -0.562,-0.703 -0.813,-1.083 -1.91,-2.889 -2.51,-6.461 -1.646,-9.8 0.259,-0.999 0.644,-1.95 1.135,-2.838 -1.2,0.584 -2.235,1.492 -2.978,2.659 -2.181,3.424 -1.171,7.984 2.253,10.165 m 4.215,-3.203 c 1.398,2.685 4.153,4.353 7.191,4.353 1.305,0 2.556,-0.307 3.72,-0.913 3.957,-2.06 5.5,-6.955 3.441,-10.911 -1.398,-2.685 -4.154,-4.353 -7.191,-4.353 -1.305,0 -2.557,0.307 -3.721,0.913 -1.913,0.996 -3.325,2.681 -3.975,4.744 -0.651,2.063 -0.461,4.253 0.535,6.167 m 2.043,-47.398 c 11.287,7.143 16.092,21.124 11.944,33.552 1.014,0.683 1.929,1.517 2.705,2.488 9.652,-5.822 13.13,-18.197 7.914,-28.216 -3.702,-7.113 -10.993,-11.531 -19.026,-11.531 -2.684,0 -5.301,0.503 -7.795,1.487 1.47,0.618 2.895,1.357 4.258,2.22 M 4.805,-83.229 c -0.709,0.369 -1.455,0.663 -2.22,0.886 6.502,4.306 11.025,11.405 11.783,19.606 0.003,0.026 0.005,0.063 0.006,0.099 0.261,0.016 0.52,0.039 0.777,0.073 0.106,-0.06 0.211,-0.121 0.319,-0.177 0.959,-0.499 1.984,-0.863 3.037,-1.093 3.496,-8.573 0.429,-18.63 -7.573,-23.729 -0.35,-0.223 -0.709,-0.429 -1.07,-0.628 -1.119,2.052 -2.835,3.805 -5.059,4.963 m 15.569,-55.448 c -0.708,-0.037 -1.417,-0.061 -2.13,-0.061 H 18.24 c -13.915,0.001 -27.083,7.001 -34.365,18.268 -5.92,9.16 -7.879,20.065 -5.486,30.714 2.509,-2.996 5.56,-5.404 8.95,-7.139 0.689,-2.845 2.378,-5.439 4.887,-7.168 1.779,-1.227 3.809,-1.955 5.923,-2.13 l 0.423,-1.606 c 3.317,-12.629 11.126,-23.594 21.802,-30.878 m -24.933,37.458 c -3.956,2.059 -5.5,6.954 -3.44,10.911 1.398,2.685 4.153,4.353 7.191,4.353 1.305,0 2.556,-0.307 3.72,-0.913 3.957,-2.06 5.5,-6.954 3.44,-10.911 -1.397,-2.685 -4.153,-4.353 -7.19,-4.353 -1.305,0 -2.557,0.307 -3.721,0.913 m 15.556,10.123 c 0.54,0.285 1.074,0.591 1.598,0.924 8.836,5.629 12.472,16.474 9.292,26.081 1.487,0.096 2.916,0.46 4.233,1.054 3.649,-11.462 -0.84,-24.272 -11.232,-30.849 -1.171,-0.741 -2.395,-1.376 -3.652,-1.923 0.231,1.588 0.141,3.188 -0.239,4.713 m 92.159,13.509 c -4.422,14.023 -14.023,25.476 -27.034,32.249 -7.797,4.059 -16.583,6.205 -25.407,6.205 -6.537,0 -12.952,-1.146 -19.067,-3.405 l -0.875,-0.324 c -1.398,1.49 -3.141,2.655 -5.086,3.378 -1.458,0.542 -2.99,0.817 -4.554,0.817 -1.274,0 -2.559,-0.189 -3.792,-0.554 -1.195,0.365 -2.446,0.554 -3.694,0.554 -1.053,0 -2.087,-0.13 -3.093,-0.387 -0.743,0.197 -1.505,0.32 -2.277,0.367 -0.243,0.015 -0.49,0.022 -0.733,0.022 H 7.543 c -3.253,10e-4 -6.283,-1.293 -8.533,-3.643 -2.218,-2.317 -3.411,-5.481 -3.271,-8.68 0.228,-5.229 3.801,-9.523 8.607,-10.861 -0.767,-7.891 -7.154,-14.185 -15.154,-14.764 0.462,2.95 -0.119,6.05 -1.795,8.68 -2.313,3.63 -6.27,5.798 -10.586,5.798 -1.255,0 -2.48,-0.183 -3.65,-0.539 3.929,2.062 6.532,6.261 6.326,10.976 -0.276,6.333 -5.456,11.293 -11.792,11.294 -0.593,0 -1.193,-0.045 -1.785,-0.134 -5.355,-0.805 -9.557,-5.306 -9.99,-10.702 -0.135,-1.688 0.094,-3.38 0.656,-4.952 l -0.249,-0.246 c -9.38,-9.289 -14.431,-22.175 -13.856,-35.353 1.002,-22.949 18.65,-41.828 41.31,-44.496 4.495,-4.049 9.64,-7.234 15.311,-9.476 6.03,-2.384 12.371,-3.593 18.848,-3.593 5.623,0 11.141,0.918 16.427,2.729 5.27,-1.645 10.739,-2.478 16.278,-2.478 9.913,0 19.665,2.676 28.203,7.739 8.787,5.212 15.932,12.769 20.661,21.854 6.774,13.012 8.069,27.901 3.647,41.925 m -13.73,-37.626 c -7.523,-13.876 -22.923,-22.842 -39.232,-22.842 h -0.003 c -6.836,0.001 -13.588,1.609 -19.526,4.651 -10.572,5.416 -18.359,14.635 -21.927,25.96 -0.01,0.032 -0.012,0.06 0.012,0.093 0.016,0.022 0.048,0.048 0.084,0.048 0.013,0 0.028,-0.003 0.045,-0.01 3.433,-1.253 7.027,-1.888 10.68,-1.888 11.695,0 22.331,6.428 27.757,16.776 7.256,13.838 3.122,31.071 -9.616,40.084 -0.02,0.014 -0.056,0.04 -0.046,0.102 0.011,0.067 0.059,0.082 0.082,0.089 4.233,1.307 8.617,1.97 13.033,1.97 7.056,0 14.112,-1.744 20.406,-5.044 10.517,-5.514 18.214,-14.809 21.673,-26.171 3.459,-11.36 2.243,-23.37 -3.422,-33.818 m -17.314,61.778 c -6.581,3.451 -13.961,5.275 -21.343,5.275 -4.618,0 -9.203,-0.694 -13.629,-2.061 -0.785,-0.242 -1.352,-0.894 -1.48,-1.701 -0.128,-0.803 0.206,-1.595 0.873,-2.067 11.916,-8.432 15.782,-24.553 8.994,-37.498 -5.076,-9.681 -15.026,-15.695 -25.968,-15.695 -3.416,0 -6.777,0.594 -9.988,1.766 -0.883,0.322 -1.899,0.009 -2.449,-0.741 -0.403,-0.549 -0.516,-1.24 -0.31,-1.894 3.731,-11.844 11.875,-21.486 22.932,-27.15 6.222,-3.188 13.292,-4.873 20.446,-4.873 h 0.004 c 17.038,0 33.136,9.381 41.007,23.898 5.925,10.927 7.196,23.488 3.579,35.369 -3.617,11.883 -11.668,21.604 -22.668,27.372" />
      </g>
    </g>
  </g>
</svg>
